<?xml version="1.0" encoding="UTF-8"?>
<svg width="26px" height="26px" viewBox="0 0 26 26" version="1.1" xmlns="http://www.w3.org/2000/svg" xmlns:xlink="http://www.w3.org/1999/xlink">
    <!-- Generator: Sketch 48.1 (47250) - http://www.bohemiancoding.com/sketch -->
    <title>Cappasity Token</title>
    <desc>Created with Sketch.</desc>
    <defs></defs>
    <g id="Main-iPhone-7-plus" stroke="none" stroke-width="1" fill="none" fill-rule="evenodd" transform="translate(-269.000000, -3330.000000)">
        <g id="Group-4" transform="translate(0.000000, 3250.000000)">
            <g id="Group-5" transform="translate(18.000000, 78.000000)">
                <g id="Cappasity-Token" transform="translate(251.000000, 2.000000)">
                    <g>
                        <circle id="Oval" fill-opacity="0.5" fill="#000000" fill-rule="nonzero" cx="13" cy="13" r="13"></circle>
                        <g id="Combined-Shape" transform="translate(12.657895, 13.000000) rotate(12.000000) translate(-12.657895, -13.000000) translate(6.157895, 6.157895)">
                            <g id="path-2-link" fill="#000000" fill-rule="nonzero">
                                <path d="M12.2706859,2.04876529 C10.9714617,0.784419223 9.16108981,0 7.15869981,0 C3.20505907,0 0,3.05805506 0,6.83035714 C0,10.6026592 3.20505907,13.6607143 7.15869981,13.6607143 C9.55571952,13.6607143 11.6775775,12.5366423 12.9768345,10.8108288 L10.8949611,9.58042155 C10.0206122,10.5978173 8.67189886,11.25 7.15869981,11.25 C4.52293932,11.25 2.38623327,9.2712585 2.38623327,6.83035714 C2.38623327,4.38945579 4.52293932,2.41071429 7.15869981,2.41071429 C8.42487796,2.41071429 9.57588973,2.86734677 10.4301885,3.61248669 L12.2706859,2.04876529 Z" id="path-2"></path>
                            </g>
                            <g id="path-2-link" fill="#FFFFFF">
                                <path d="M12.2706859,2.04876529 C10.9714617,0.784419223 9.16108981,0 7.15869981,0 C3.20505907,0 0,3.05805506 0,6.83035714 C0,10.6026592 3.20505907,13.6607143 7.15869981,13.6607143 C9.55571952,13.6607143 11.6775775,12.5366423 12.9768345,10.8108288 L10.8949611,9.58042155 C10.0206122,10.5978173 8.67189886,11.25 7.15869981,11.25 C4.52293932,11.25 2.38623327,9.2712585 2.38623327,6.83035714 C2.38623327,4.38945579 4.52293932,2.41071429 7.15869981,2.41071429 C8.42487796,2.41071429 9.57588973,2.86734677 10.4301885,3.61248669 L12.2706859,2.04876529 Z" id="path-2"></path>
                            </g>
                        </g>
                    </g>
                </g>
            </g>
        </g>
    </g>
</svg>