<?xml version="1.0" encoding="UTF-8"?>
<svg width="667px" height="307px" viewBox="0 0 667 307" version="1.1" xmlns="http://www.w3.org/2000/svg" xmlns:xlink="http://www.w3.org/1999/xlink">
    <!-- Generator: Sketch 48.1 (47250) - http://www.bohemiancoding.com/sketch -->
    <title>Cristal</title>
    <desc>Created with Sketch.</desc>
    <defs></defs>
    <g id="Documentation-1440" stroke="none" stroke-width="1" fill="none" fill-rule="evenodd" transform="translate(-457.000000, -30.000000)">
        <g id="Cristal" transform="translate(457.000000, 30.000000)">
            <g id="Group-7">
                <path d="M300.651828,304.627059 C316.8047,316.874326 330.622609,275.30767 354.478466,243.003339 C378.334323,210.699007 422.456544,220.984812 434.981638,221.348111 C479.575805,222.641597 425.116742,176.714057 461.030716,164.770058 C469.258298,162.033791 525.172194,158.512853 572.197146,159.33943 C614.956307,160.091026 652.513754,170.553346 664.71222,154.314787 C676.910687,138.076229 634.708891,143.746754 634.022756,126.96773 C633.33662,110.188705 617.448189,115.055121 582.563524,107.957906 C553.628668,102.071167 521.468462,82.4400708 501.480717,53.8890642 C481.492971,25.3380576 483.159228,20.5366274 437.432474,3.79149463 C391.705719,-12.9536381 328.778698,34.9517234 304.49063,53.8890642 C280.202562,72.826405 259.122695,72.2345661 209.889319,72.2345661 C172.160545,72.2345661 146.506499,53.079632 106.921478,67.4027817 C67.3364576,81.7259315 73.8516965,98.8863238 52.381831,115.816731 C26.7370176,136.03936 -0.507127913,137.155251 0.0999297673,150.668087 C0.706987447,164.180923 17.2013109,159.273799 67.4812606,159.33943 C98.6640126,159.380134 142.681648,163.593608 149.240836,164.770058 C183.496728,172.486343 167.991872,186.835373 214.156304,193.398078 C266.433304,200.829742 284.498955,292.379793 300.651828,304.627059 Z" id="Oval" fill="#32D4D4" opacity="0.261039402"></path>
                <g id="Cristal" transform="translate(235.000000, 94.000000)" opacity="0.6">
                    <g id="Page-1">
                        <polygon id="Fill-1" fill="#F1F3F4" points="131.442678 28.607169 145.231629 55.1195109 108.832938 90.9747299 102.114407 56.9445322"></polygon>
                        <polygon id="Fill-2" fill="#F1F3F4" points="112.459657 66 112.413146 58.6584295 118.58216 55 118.58216 62.3338122"></polygon>
                        <polygon id="Fill-3" fill="#F8F9FB" points="112.413146 66 112.412584 58.6664751 106.244131 55 106.245534 62.3338122"></polygon>
                        <polygon id="Fill-4" fill="#FFFFFF" points="119.267606 55.3443427 112.757053 59.125 106.244131 55.345528 112.755572 51.5625"></polygon>
                        <polygon id="Fill-5" fill="#F1F3F4" points="128.910085 57.0625 128.86385 49.7206422 135.032864 46.0625 135.032864 53.3960249"></polygon>
                        <polygon id="Fill-6" fill="#F8F9FB" points="128.86385 57.0625 128.863289 49.7286878 122.694836 46.0625 122.696238 53.3960249"></polygon>
                        <polygon id="Fill-7" fill="#FFFFFF" points="135.71831 45.7191945 129.207609 49.5 122.694836 45.7203799 129.206128 41.9375"></polygon>
                        <polygon id="Fill-8" fill="#F1F3F4" points="128.910085 75.625 128.86385 68.2831422 135.032864 64.625 132.806905 70.6387663"></polygon>
                        <polygon id="Fill-9" fill="#F8F9FB" points="128.86385 75.625 128.863289 68.2914751 122.694836 64.625 122.696238 71.9585249"></polygon>
                        <polygon id="Fill-10" fill="#FFFFFF" points="135.71831 64.9690463 129.207609 68.75 122.694836 64.970528 129.206128 61.1875"></polygon>
                        <polygon id="Fill-11" fill="#F1F3F4" points="112.459657 85.25 112.413146 77.9081422 118.58216 74.25 118.58216 81.5835249"></polygon>
                        <polygon id="Fill-12" fill="#F8F9FB" points="112.413146 85.25 112.412584 77.9161878 106.244131 74.25 106.245534 81.5835249"></polygon>
                        <polygon id="Fill-13" fill="#FFFFFF" points="119.267606 73.9066945 112.757053 77.6875 106.244131 73.9078799 112.755572 70.125"></polygon>
                        <polygon id="Fill-14" fill="#F8F9FB" points="14.3084429 28.1875 0 54.348515 36.9795566 91.4375 43.8685446 56.9494235"></polygon>
                        <polygon id="Fill-15" fill="#F1F3F4" points="15.1263235 55 15.0798122 47.658334 21.2488263 44 21.2488263 51.3336207"></polygon>
                        <polygon id="Fill-16" fill="#F8F9FB" points="15.0798122 55 15.0792511 47.6663793 8.91079812 44 8.91220094 51.3336207"></polygon>
                        <polygon id="Fill-17" fill="#FFFFFF" points="21.9342723 44.3443427 15.4235719 48.125 8.91079812 44.345528 15.4220909 40.5625"></polygon>
                        <polygon id="Fill-18" fill="#F1F3F4" points="30.8915817 64.625 30.8450704 57.2831422 37.0140845 53.625 37.0140845 60.9585249"></polygon>
                        <polygon id="Fill-19" fill="#F8F9FB" points="30.8450704 64.625 30.8445093 57.2914751 24.6760563 53.625 24.6774592 60.9585249"></polygon>
                        <polygon id="Fill-20" fill="#FFFFFF" points="37.6995305 53.2815463 31.1889782 57.0625 24.6760563 53.2827317 31.1874972 49.5"></polygon>
                        <polygon id="Fill-21" fill="#F1F3F4" points="30.8915817 83.1875 30.8450704 75.8456422 37.0140845 72.1875 37.0140845 79.5210249"></polygon>
                        <polygon id="Fill-22" fill="#F8F9FB" points="30.8450704 83.1875 30.8445093 75.8539751 24.6760563 72.1875 24.6774592 79.5210249"></polygon>
                        <polygon id="Fill-23" fill="#FFFFFF" points="37.6995305 72.5315463 31.1889782 76.3125 24.6760563 72.533028 31.1874972 68.75"></polygon>
                        <polygon id="Fill-24" fill="#FFFFFF" points="36.8669607 91.0382207 43.7891933 56.7814685 102.234952 56.9718532 108.904812 91.0382207"></polygon>
                        <polygon id="Fill-25" fill="#F1F3F4" points="32.2159624 35.75 32.2159624 29.3344535 37.6995305 26.125 37.6995305 32.540852"></polygon>
                        <polygon id="Fill-26" fill="#F8F9FB" points="32.2159624 35.0625 32.2159624 28.6259027 26.7323944 25.4375 26.7323944 31.8801676"></polygon>
                        <polygon id="Fill-27" fill="#FFFFFF" points="37.0140845 26.46875 31.8695463 29.5625 26.7323944 26.4652153 31.8669895 23.375"></polygon>
                        <polygon id="Fill-28" fill="#FFFFFF" points="14.3068006 28.1837735 43.0564381 0 102.089235 0 131.605634 28.53125 102.089235 57.0625 43.6644545 56.8296362"></polygon>
                        <polygon id="Fill-29" fill="#F1F3F4" points="87.0978781 55 87.0516432 47.6581422 93.2206573 44 93.2206573 51.3335249"></polygon>
                        <polygon id="Fill-30" fill="#F8F9FB" points="86.3661972 55 86.3656361 47.6664751 80.1971831 44 80.1985859 51.3335249"></polygon>
                        <polygon id="Fill-31" fill="#FFFFFF" points="93.2206573 44.3440463 86.7099569 48.125 80.1971831 44.3452317 86.7084759 40.5625"></polygon>
                        <polygon id="Fill-32" fill="#F1F3F4" points="60.3657601 55 60.3192488 47.658334 66.4882629 44 66.4882629 51.3336207"></polygon>
                        <polygon id="Fill-33" fill="#F8F9FB" points="60.3192488 55 60.3186877 47.6663793 54.1502347 44 54.1516376 51.3336207"></polygon>
                        <polygon id="Fill-34" fill="#FFFFFF" points="67.1737089 44.3443427 60.6630085 48.125 54.1502347 44.345528 60.6615275 40.5625"></polygon>
                        <polygon id="Fill-35" fill="#F1F3F4" points="45.2859479 45.375 45.2394366 38.033334 51.4084507 34.375 51.4084507 41.7086207"></polygon>
                        <polygon id="Fill-36" fill="#F8F9FB" points="44.5539906 45.375 44.5531489 38.0413793 38.3849765 34.375 38.3863793 41.7086207"></polygon>
                        <polygon id="Fill-37" fill="#FFFFFF" points="51.4084507 34.7193427 44.8978984 38.5 38.3849765 34.720528 44.8964174 30.9375"></polygon>
                        <polygon id="Fill-38" fill="#F1F3F4" points="28.1497977 36.4375 28.1032864 29.095834 34.2723005 25.4375 34.2723005 32.7711207"></polygon>
                        <polygon id="Fill-39" fill="#F8F9FB" points="27.4178404 36.4375 27.4172793 29.1038793 21.2488263 25.4375 21.2502291 32.7711207"></polygon>
                        <polygon id="Fill-40" fill="#FFFFFF" points="34.2723005 25.0941945 27.7617482 28.875 21.2488263 25.0953799 27.7602672 21.3125"></polygon>
                        <polygon id="Fill-41" fill="#F1F3F4" points="102.863413 45.375 102.816901 38.033334 108.985915 34.375 108.985915 41.7086207"></polygon>
                        <polygon id="Fill-42" fill="#F8F9FB" points="102.816901 45.375 102.81634 38.0413793 96.6478873 34.375 96.6492901 41.7086207"></polygon>
                        <polygon id="Fill-43" fill="#FFFFFF" points="109.671362 34.7191945 103.160661 38.5 96.6478873 34.7203799 103.15918 30.9375"></polygon>
                        <polygon id="Fill-44" fill="#F1F3F4" points="119.314117 36.4375 119.267606 29.095834 125.43662 25.4375 125.43662 32.7711207"></polygon>
                        <polygon id="Fill-45" fill="#F8F9FB" points="118.58216 36.4375 118.581318 29.1038793 112.413146 25.4375 112.414548 32.7711207"></polygon>
                        <polygon id="Fill-46" fill="#FFFFFF" points="125.43662 25.0941945 118.926067 28.875 112.413146 25.0953799 118.924586 21.3125"></polygon>
                        <polygon id="Fill-47" fill="#F1F3F4" points="15.0798122 74.25 15.0798122 66.917822 21.2488263 63.25 21.2488263 70.582178"></polygon>
                        <polygon id="Fill-48" fill="#F8F9FB" points="15.0798122 74.25 15.0798122 66.8940926 8.91079812 63.25"></polygon>
                        <polygon id="Fill-49" fill="#FFFFFF" points="21.9342723 62.90625 15.4177184 66.6875 8.91079812 62.9020804 15.4147079 59.125"></polygon>
                        <polygon id="Fill-50" fill="#D9D9D9" points="146 54.3125 73.342723 153.3125 108.970439 90.8096958"></polygon>
                        <polygon id="Fill-51" fill="#D9D9D9" points="0 54.3125 73.342723 154 36.9362846 91.141394"></polygon>
                        <polygon id="Fill-52" fill="#FFFFFF" points="36.798474 90.924704 108.924092 90.924704 73.2936509 154"></polygon>
                        <polygon id="Fill-53" fill="#F1F3F4" points="60.3657622 111.375 60.3192488 104.033334 66.4882629 100.375 66.4882629 107.708621"></polygon>
                        <polygon id="Fill-54" fill="#F8F9FB" points="60.3192488 111.375 60.3184071 104.041379 54.1502347 100.375 54.1516376 107.708621"></polygon>
                        <polygon id="Fill-55" fill="#FFFFFF" points="67.1737089 100.719343 60.6631566 104.5 54.1502347 100.720528 60.6616756 96.9375"></polygon>
                        <polygon id="Fill-56" fill="#F1F3F4" points="60.3657601 74.25 60.3192488 66.908334 66.4882629 63.25 66.4882629 70.5836207"></polygon>
                        <polygon id="Fill-57" fill="#F8F9FB" points="60.3192488 74.25 60.3186877 66.9163793 54.1502347 63.25 54.1516376 70.5836207"></polygon>
                        <polygon id="Fill-58" fill="#FFFFFF" points="67.1737089 62.9068427 60.6630085 66.6875 54.1502347 62.908028 60.6615275 59.125"></polygon>
                        <polygon id="Fill-59" fill="#F1F3F4" points="87.0981545 92.8125 87.0516432 85.4706422 93.2206573 81.8125 93.2206573 89.1460249"></polygon>
                        <polygon id="Fill-60" fill="#F8F9FB" points="86.3661972 92.8125 86.3653555 85.4789751 80.1971831 81.8125 80.1985859 89.1460249"></polygon>
                        <polygon id="Fill-61" fill="#FFFFFF" points="93.2206573 82.1565463 86.710105 85.9375 80.1971831 82.158028 86.708624 78.375"></polygon>
                        <polygon id="Fill-62" fill="#F1F3F4" points="87.0981545 74.25 87.0516432 66.908334 93.2206573 63.25 93.2206573 70.5836207"></polygon>
                        <polygon id="Fill-63" fill="#F8F9FB" points="86.3661972 74.25 86.3653555 66.9163793 80.1971831 63.25 80.1985859 70.5836207"></polygon>
                        <polygon id="Fill-64" fill="#FFFFFF" points="93.2206573 62.9068427 86.710105 66.6875 80.1971831 62.908028 86.708624 59.125"></polygon>
                        <polygon id="Fill-65" fill="#F1F3F4" points="60.3657622 92.8125 60.3192488 85.4706422 66.4882629 81.8125 66.4882629 89.1460249"></polygon>
                        <polygon id="Fill-66" fill="#F8F9FB" points="60.3192488 92.8125 60.3184071 85.4789751 54.1502347 81.8125 54.1516376 89.1460249"></polygon>
                        <polygon id="Fill-67" fill="#FFFFFF" points="67.1737089 82.1565463 60.6631566 85.9375 54.1502347 82.1577317 60.6616756 78.375"></polygon>
                        <polygon id="Fill-68" fill="#F1F3F4" points="87.0981545 111.375 87.0516432 104.033142 93.2206573 100.375 93.2206573 107.708525"></polygon>
                        <polygon id="Fill-69" fill="#F8F9FB" points="86.3661972 111.375 86.3653555 104.041475 80.1971831 100.375 80.1985859 107.708525"></polygon>
                        <polygon id="Fill-70" fill="#FFFFFF" points="93.2206573 100.719046 86.710105 104.5 80.1971831 100.720528 86.708624 96.9375"></polygon>
                        <polygon id="Fill-71" fill="#F1F3F4" points="73.3892343 130.625 73.342723 123.283142 79.5117371 119.625 79.5117371 126.958525"></polygon>
                        <polygon id="Fill-72" fill="#F8F9FB" points="72.657277 130.625 72.6567159 123.291475 66.4882629 119.625 66.4896657 126.958525"></polygon>
                        <polygon id="Fill-73" fill="#FFFFFF" points="79.5117371 119.281546 73.0011848 123.0625 66.4882629 119.283028 72.9997038 115.5"></polygon>
                    </g>
                    <g id="Page-1">
                        <polygon id="Fill-1" fill="#F1F3F4" points="131.442678 28.607169 145.231629 55.1195109 108.832938 90.9747299 102.114407 56.9445322"></polygon>
                        <polygon id="Fill-2" fill="#F1F3F4" points="112.459657 66 112.413146 58.6584295 118.58216 55 118.58216 62.3338122"></polygon>
                        <polygon id="Fill-3" fill="#F8F9FB" points="112.413146 66 112.412584 58.6664751 106.244131 55 106.245534 62.3338122"></polygon>
                        <polygon id="Fill-4" fill="#FFFFFF" points="119.267606 55.3443427 112.757053 59.125 106.244131 55.345528 112.755572 51.5625"></polygon>
                        <polygon id="Fill-5" fill="#F1F3F4" points="128.910085 57.0625 128.86385 49.7206422 135.032864 46.0625 135.032864 53.3960249"></polygon>
                        <polygon id="Fill-6" fill="#F8F9FB" points="128.86385 57.0625 128.863289 49.7286878 122.694836 46.0625 122.696238 53.3960249"></polygon>
                        <polygon id="Fill-7" fill="#FFFFFF" points="135.71831 45.7191945 129.207609 49.5 122.694836 45.7203799 129.206128 41.9375"></polygon>
                        <polygon id="Fill-8" fill="#F1F3F4" points="128.910085 75.625 128.86385 68.2831422 135.032864 64.625 132.806905 70.6387663"></polygon>
                        <polygon id="Fill-9" fill="#F8F9FB" points="128.86385 75.625 128.863289 68.2914751 122.694836 64.625 122.696238 71.9585249"></polygon>
                        <polygon id="Fill-10" fill="#FFFFFF" points="135.71831 64.9690463 129.207609 68.75 122.694836 64.970528 129.206128 61.1875"></polygon>
                        <polygon id="Fill-11" fill="#F1F3F4" points="112.459657 85.25 112.413146 77.9081422 118.58216 74.25 118.58216 81.5835249"></polygon>
                        <polygon id="Fill-12" fill="#F8F9FB" points="112.413146 85.25 112.412584 77.9161878 106.244131 74.25 106.245534 81.5835249"></polygon>
                        <polygon id="Fill-13" fill="#FFFFFF" points="119.267606 73.9066945 112.757053 77.6875 106.244131 73.9078799 112.755572 70.125"></polygon>
                        <polygon id="Fill-14" fill="#F8F9FB" points="14.3084429 28.1875 0 54.348515 36.9795566 91.4375 43.8685446 56.9494235"></polygon>
                        <polygon id="Fill-15" fill="#F1F3F4" points="15.1263235 55 15.0798122 47.658334 21.2488263 44 21.2488263 51.3336207"></polygon>
                        <polygon id="Fill-16" fill="#F8F9FB" points="15.0798122 55 15.0792511 47.6663793 8.91079812 44 8.91220094 51.3336207"></polygon>
                        <polygon id="Fill-17" fill="#FFFFFF" points="21.9342723 44.3443427 15.4235719 48.125 8.91079812 44.345528 15.4220909 40.5625"></polygon>
                        <polygon id="Fill-18" fill="#F1F3F4" points="30.8915817 64.625 30.8450704 57.2831422 37.0140845 53.625 37.0140845 60.9585249"></polygon>
                        <polygon id="Fill-19" fill="#F8F9FB" points="30.8450704 64.625 30.8445093 57.2914751 24.6760563 53.625 24.6774592 60.9585249"></polygon>
                        <polygon id="Fill-20" fill="#FFFFFF" points="37.6995305 53.2815463 31.1889782 57.0625 24.6760563 53.2827317 31.1874972 49.5"></polygon>
                        <polygon id="Fill-21" fill="#F1F3F4" points="30.8915817 83.1875 30.8450704 75.8456422 37.0140845 72.1875 37.0140845 79.5210249"></polygon>
                        <polygon id="Fill-22" fill="#F8F9FB" points="30.8450704 83.1875 30.8445093 75.8539751 24.6760563 72.1875 24.6774592 79.5210249"></polygon>
                        <polygon id="Fill-23" fill="#FFFFFF" points="37.6995305 72.5315463 31.1889782 76.3125 24.6760563 72.533028 31.1874972 68.75"></polygon>
                        <polygon id="Fill-24" fill="#FFFFFF" points="36.8669607 91.0382207 43.7891933 56.7814685 102.234952 56.9718532 108.904812 91.0382207"></polygon>
                        <polygon id="Fill-25" fill="#F1F3F4" points="32.2159624 35.75 32.2159624 29.3344535 37.6995305 26.125 37.6995305 32.540852"></polygon>
                        <polygon id="Fill-26" fill="#F8F9FB" points="32.2159624 35.0625 32.2159624 28.6259027 26.7323944 25.4375 26.7323944 31.8801676"></polygon>
                        <polygon id="Fill-27" fill="#FFFFFF" points="37.0140845 26.46875 31.8695463 29.5625 26.7323944 26.4652153 31.8669895 23.375"></polygon>
                        <polygon id="Fill-28" fill="#FFFFFF" points="14.3068006 28.1837735 43.0564381 0 102.089235 0 131.605634 28.53125 102.089235 57.0625 43.6644545 56.8296362"></polygon>
                        <polygon id="Fill-29" fill="#F1F3F4" points="87.0978781 55 87.0516432 47.6581422 93.2206573 44 93.2206573 51.3335249"></polygon>
                        <polygon id="Fill-30" fill="#F8F9FB" points="86.3661972 55 86.3656361 47.6664751 80.1971831 44 80.1985859 51.3335249"></polygon>
                        <polygon id="Fill-31" fill="#FFFFFF" points="93.2206573 44.3440463 86.7099569 48.125 80.1971831 44.3452317 86.7084759 40.5625"></polygon>
                        <polygon id="Fill-32" fill="#F1F3F4" points="60.3657601 55 60.3192488 47.658334 66.4882629 44 66.4882629 51.3336207"></polygon>
                        <polygon id="Fill-33" fill="#F8F9FB" points="60.3192488 55 60.3186877 47.6663793 54.1502347 44 54.1516376 51.3336207"></polygon>
                        <polygon id="Fill-34" fill="#FFFFFF" points="67.1737089 44.3443427 60.6630085 48.125 54.1502347 44.345528 60.6615275 40.5625"></polygon>
                        <polygon id="Fill-35" fill="#F1F3F4" points="45.2859479 45.375 45.2394366 38.033334 51.4084507 34.375 51.4084507 41.7086207"></polygon>
                        <polygon id="Fill-36" fill="#F8F9FB" points="44.5539906 45.375 44.5531489 38.0413793 38.3849765 34.375 38.3863793 41.7086207"></polygon>
                        <polygon id="Fill-37" fill="#FFFFFF" points="51.4084507 34.7193427 44.8978984 38.5 38.3849765 34.720528 44.8964174 30.9375"></polygon>
                        <polygon id="Fill-38" fill="#F1F3F4" points="28.1497977 36.4375 28.1032864 29.095834 34.2723005 25.4375 34.2723005 32.7711207"></polygon>
                        <polygon id="Fill-39" fill="#F8F9FB" points="27.4178404 36.4375 27.4172793 29.1038793 21.2488263 25.4375 21.2502291 32.7711207"></polygon>
                        <polygon id="Fill-40" fill="#FFFFFF" points="34.2723005 25.0941945 27.7617482 28.875 21.2488263 25.0953799 27.7602672 21.3125"></polygon>
                        <polygon id="Fill-41" fill="#F1F3F4" points="102.863413 45.375 102.816901 38.033334 108.985915 34.375 108.985915 41.7086207"></polygon>
                        <polygon id="Fill-42" fill="#F8F9FB" points="102.816901 45.375 102.81634 38.0413793 96.6478873 34.375 96.6492901 41.7086207"></polygon>
                        <polygon id="Fill-43" fill="#FFFFFF" points="109.671362 34.7191945 103.160661 38.5 96.6478873 34.7203799 103.15918 30.9375"></polygon>
                        <polygon id="Fill-44" fill="#F1F3F4" points="119.314117 36.4375 119.267606 29.095834 125.43662 25.4375 125.43662 32.7711207"></polygon>
                        <polygon id="Fill-45" fill="#F8F9FB" points="118.58216 36.4375 118.581318 29.1038793 112.413146 25.4375 112.414548 32.7711207"></polygon>
                        <polygon id="Fill-46" fill="#FFFFFF" points="125.43662 25.0941945 118.926067 28.875 112.413146 25.0953799 118.924586 21.3125"></polygon>
                        <polygon id="Fill-47" fill="#F1F3F4" points="15.0798122 74.25 15.0798122 66.917822 21.2488263 63.25 21.2488263 70.582178"></polygon>
                        <polygon id="Fill-48" fill="#F8F9FB" points="15.0798122 74.25 15.0798122 66.8940926 8.91079812 63.25"></polygon>
                        <polygon id="Fill-49" fill="#FFFFFF" points="21.9342723 62.90625 15.4177184 66.6875 8.91079812 62.9020804 15.4147079 59.125"></polygon>
                        <polygon id="Fill-50" fill="#D9D9D9" points="146 54.3125 73.342723 153.3125 108.970439 90.8096958"></polygon>
                        <polygon id="Fill-51" fill="#D9D9D9" points="0 54.3125 73.342723 154 36.9362846 91.141394"></polygon>
                        <polygon id="Fill-52" fill="#FFFFFF" points="36.798474 90.924704 108.924092 90.924704 73.2936509 154"></polygon>
                        <polygon id="Fill-53" fill="#F1F3F4" points="60.3657622 111.375 60.3192488 104.033334 66.4882629 100.375 66.4882629 107.708621"></polygon>
                        <polygon id="Fill-54" fill="#F8F9FB" points="60.3192488 111.375 60.3184071 104.041379 54.1502347 100.375 54.1516376 107.708621"></polygon>
                        <polygon id="Fill-55" fill="#FFFFFF" points="67.1737089 100.719343 60.6631566 104.5 54.1502347 100.720528 60.6616756 96.9375"></polygon>
                        <polygon id="Fill-56" fill="#F1F3F4" points="60.3657601 74.25 60.3192488 66.908334 66.4882629 63.25 66.4882629 70.5836207"></polygon>
                        <polygon id="Fill-57" fill="#F8F9FB" points="60.3192488 74.25 60.3186877 66.9163793 54.1502347 63.25 54.1516376 70.5836207"></polygon>
                        <polygon id="Fill-58" fill="#FFFFFF" points="67.1737089 62.9068427 60.6630085 66.6875 54.1502347 62.908028 60.6615275 59.125"></polygon>
                        <polygon id="Fill-59" fill="#F1F3F4" points="87.0981545 92.8125 87.0516432 85.4706422 93.2206573 81.8125 93.2206573 89.1460249"></polygon>
                        <polygon id="Fill-60" fill="#F8F9FB" points="86.3661972 92.8125 86.3653555 85.4789751 80.1971831 81.8125 80.1985859 89.1460249"></polygon>
                        <polygon id="Fill-61" fill="#FFFFFF" points="93.2206573 82.1565463 86.710105 85.9375 80.1971831 82.158028 86.708624 78.375"></polygon>
                        <polygon id="Fill-62" fill="#F1F3F4" points="87.0981545 74.25 87.0516432 66.908334 93.2206573 63.25 93.2206573 70.5836207"></polygon>
                        <polygon id="Fill-63" fill="#F8F9FB" points="86.3661972 74.25 86.3653555 66.9163793 80.1971831 63.25 80.1985859 70.5836207"></polygon>
                        <polygon id="Fill-64" fill="#FFFFFF" points="93.2206573 62.9068427 86.710105 66.6875 80.1971831 62.908028 86.708624 59.125"></polygon>
                        <polygon id="Fill-65" fill="#F1F3F4" points="60.3657622 92.8125 60.3192488 85.4706422 66.4882629 81.8125 66.4882629 89.1460249"></polygon>
                        <polygon id="Fill-66" fill="#F8F9FB" points="60.3192488 92.8125 60.3184071 85.4789751 54.1502347 81.8125 54.1516376 89.1460249"></polygon>
                        <polygon id="Fill-67" fill="#FFFFFF" points="67.1737089 82.1565463 60.6631566 85.9375 54.1502347 82.1577317 60.6616756 78.375"></polygon>
                        <polygon id="Fill-68" fill="#F1F3F4" points="87.0981545 111.375 87.0516432 104.033142 93.2206573 100.375 93.2206573 107.708525"></polygon>
                        <polygon id="Fill-69" fill="#F8F9FB" points="86.3661972 111.375 86.3653555 104.041475 80.1971831 100.375 80.1985859 107.708525"></polygon>
                        <polygon id="Fill-70" fill="#FFFFFF" points="93.2206573 100.719046 86.710105 104.5 80.1971831 100.720528 86.708624 96.9375"></polygon>
                        <polygon id="Fill-71" fill="#F1F3F4" points="73.3892343 130.625 73.342723 123.283142 79.5117371 119.625 79.5117371 126.958525"></polygon>
                        <polygon id="Fill-72" fill="#F8F9FB" points="72.657277 130.625 72.6567159 123.291475 66.4882629 119.625 66.4896657 126.958525"></polygon>
                        <polygon id="Fill-73" fill="#FFFFFF" points="79.5117371 119.281546 73.0011848 123.0625 66.4882629 119.283028 72.9997038 115.5"></polygon>
                    </g>
                </g>
                <g id="Cristal" transform="translate(235.000000, 94.000000)" opacity="0.6">
                    <g id="Page-1">
                        <polygon id="Fill-1" fill="#F1F3F4" points="131.442678 28.607169 145.231629 55.1195109 108.832938 90.9747299 102.114407 56.9445322"></polygon>
                        <polygon id="Fill-2" fill="#F1F3F4" points="112.459657 66 112.413146 58.6584295 118.58216 55 118.58216 62.3338122"></polygon>
                        <polygon id="Fill-3" fill="#F8F9FB" points="112.413146 66 112.412584 58.6664751 106.244131 55 106.245534 62.3338122"></polygon>
                        <polygon id="Fill-4" fill="#FFFFFF" points="119.267606 55.3443427 112.757053 59.125 106.244131 55.345528 112.755572 51.5625"></polygon>
                        <polygon id="Fill-5" fill="#F1F3F4" points="128.910085 57.0625 128.86385 49.7206422 135.032864 46.0625 135.032864 53.3960249"></polygon>
                        <polygon id="Fill-6" fill="#F8F9FB" points="128.86385 57.0625 128.863289 49.7286878 122.694836 46.0625 122.696238 53.3960249"></polygon>
                        <polygon id="Fill-7" fill="#FFFFFF" points="135.71831 45.7191945 129.207609 49.5 122.694836 45.7203799 129.206128 41.9375"></polygon>
                        <polygon id="Fill-8" fill="#F1F3F4" points="128.910085 75.625 128.86385 68.2831422 135.032864 64.625 132.806905 70.6387663"></polygon>
                        <polygon id="Fill-9" fill="#F8F9FB" points="128.86385 75.625 128.863289 68.2914751 122.694836 64.625 122.696238 71.9585249"></polygon>
                        <polygon id="Fill-10" fill="#FFFFFF" points="135.71831 64.9690463 129.207609 68.75 122.694836 64.970528 129.206128 61.1875"></polygon>
                        <polygon id="Fill-11" fill="#F1F3F4" points="112.459657 85.25 112.413146 77.9081422 118.58216 74.25 118.58216 81.5835249"></polygon>
                        <polygon id="Fill-12" fill="#F8F9FB" points="112.413146 85.25 112.412584 77.9161878 106.244131 74.25 106.245534 81.5835249"></polygon>
                        <polygon id="Fill-13" fill="#FFFFFF" points="119.267606 73.9066945 112.757053 77.6875 106.244131 73.9078799 112.755572 70.125"></polygon>
                        <polygon id="Fill-14" fill="#F8F9FB" points="14.3084429 28.1875 0 54.348515 36.9795566 91.4375 43.8685446 56.9494235"></polygon>
                        <polygon id="Fill-15" fill="#F1F3F4" points="15.1263235 55 15.0798122 47.658334 21.2488263 44 21.2488263 51.3336207"></polygon>
                        <polygon id="Fill-16" fill="#F8F9FB" points="15.0798122 55 15.0792511 47.6663793 8.91079812 44 8.91220094 51.3336207"></polygon>
                        <polygon id="Fill-17" fill="#FFFFFF" points="21.9342723 44.3443427 15.4235719 48.125 8.91079812 44.345528 15.4220909 40.5625"></polygon>
                        <polygon id="Fill-18" fill="#F1F3F4" points="30.8915817 64.625 30.8450704 57.2831422 37.0140845 53.625 37.0140845 60.9585249"></polygon>
                        <polygon id="Fill-19" fill="#F8F9FB" points="30.8450704 64.625 30.8445093 57.2914751 24.6760563 53.625 24.6774592 60.9585249"></polygon>
                        <polygon id="Fill-20" fill="#FFFFFF" points="37.6995305 53.2815463 31.1889782 57.0625 24.6760563 53.2827317 31.1874972 49.5"></polygon>
                        <polygon id="Fill-21" fill="#F1F3F4" points="30.8915817 83.1875 30.8450704 75.8456422 37.0140845 72.1875 37.0140845 79.5210249"></polygon>
                        <polygon id="Fill-22" fill="#F8F9FB" points="30.8450704 83.1875 30.8445093 75.8539751 24.6760563 72.1875 24.6774592 79.5210249"></polygon>
                        <polygon id="Fill-23" fill="#FFFFFF" points="37.6995305 72.5315463 31.1889782 76.3125 24.6760563 72.533028 31.1874972 68.75"></polygon>
                        <polygon id="Fill-24" fill="#FFFFFF" points="36.8669607 91.0382207 43.7891933 56.7814685 102.234952 56.9718532 108.904812 91.0382207"></polygon>
                        <polygon id="Fill-25" fill="#F1F3F4" points="32.2159624 35.75 32.2159624 29.3344535 37.6995305 26.125 37.6995305 32.540852"></polygon>
                        <polygon id="Fill-26" fill="#F8F9FB" points="32.2159624 35.0625 32.2159624 28.6259027 26.7323944 25.4375 26.7323944 31.8801676"></polygon>
                        <polygon id="Fill-27" fill="#FFFFFF" points="37.0140845 26.46875 31.8695463 29.5625 26.7323944 26.4652153 31.8669895 23.375"></polygon>
                        <polygon id="Fill-28" fill="#FFFFFF" points="14.3068006 28.1837735 43.0564381 0 102.089235 0 131.605634 28.53125 102.089235 57.0625 43.6644545 56.8296362"></polygon>
                        <polygon id="Fill-29" fill="#F1F3F4" points="87.0978781 55 87.0516432 47.6581422 93.2206573 44 93.2206573 51.3335249"></polygon>
                        <polygon id="Fill-30" fill="#F8F9FB" points="86.3661972 55 86.3656361 47.6664751 80.1971831 44 80.1985859 51.3335249"></polygon>
                        <polygon id="Fill-31" fill="#FFFFFF" points="93.2206573 44.3440463 86.7099569 48.125 80.1971831 44.3452317 86.7084759 40.5625"></polygon>
                        <polygon id="Fill-32" fill="#F1F3F4" points="60.3657601 55 60.3192488 47.658334 66.4882629 44 66.4882629 51.3336207"></polygon>
                        <polygon id="Fill-33" fill="#F8F9FB" points="60.3192488 55 60.3186877 47.6663793 54.1502347 44 54.1516376 51.3336207"></polygon>
                        <polygon id="Fill-34" fill="#FFFFFF" points="67.1737089 44.3443427 60.6630085 48.125 54.1502347 44.345528 60.6615275 40.5625"></polygon>
                        <polygon id="Fill-35" fill="#F1F3F4" points="45.2859479 45.375 45.2394366 38.033334 51.4084507 34.375 51.4084507 41.7086207"></polygon>
                        <polygon id="Fill-36" fill="#F8F9FB" points="44.5539906 45.375 44.5531489 38.0413793 38.3849765 34.375 38.3863793 41.7086207"></polygon>
                        <polygon id="Fill-37" fill="#FFFFFF" points="51.4084507 34.7193427 44.8978984 38.5 38.3849765 34.720528 44.8964174 30.9375"></polygon>
                        <polygon id="Fill-38" fill="#F1F3F4" points="28.1497977 36.4375 28.1032864 29.095834 34.2723005 25.4375 34.2723005 32.7711207"></polygon>
                        <polygon id="Fill-39" fill="#F8F9FB" points="27.4178404 36.4375 27.4172793 29.1038793 21.2488263 25.4375 21.2502291 32.7711207"></polygon>
                        <polygon id="Fill-40" fill="#FFFFFF" points="34.2723005 25.0941945 27.7617482 28.875 21.2488263 25.0953799 27.7602672 21.3125"></polygon>
                        <polygon id="Fill-41" fill="#F1F3F4" points="102.863413 45.375 102.816901 38.033334 108.985915 34.375 108.985915 41.7086207"></polygon>
                        <polygon id="Fill-42" fill="#F8F9FB" points="102.816901 45.375 102.81634 38.0413793 96.6478873 34.375 96.6492901 41.7086207"></polygon>
                        <polygon id="Fill-43" fill="#FFFFFF" points="109.671362 34.7191945 103.160661 38.5 96.6478873 34.7203799 103.15918 30.9375"></polygon>
                        <polygon id="Fill-44" fill="#F1F3F4" points="119.314117 36.4375 119.267606 29.095834 125.43662 25.4375 125.43662 32.7711207"></polygon>
                        <polygon id="Fill-45" fill="#F8F9FB" points="118.58216 36.4375 118.581318 29.1038793 112.413146 25.4375 112.414548 32.7711207"></polygon>
                        <polygon id="Fill-46" fill="#FFFFFF" points="125.43662 25.0941945 118.926067 28.875 112.413146 25.0953799 118.924586 21.3125"></polygon>
                        <polygon id="Fill-47" fill="#F1F3F4" points="15.0798122 74.25 15.0798122 66.917822 21.2488263 63.25 21.2488263 70.582178"></polygon>
                        <polygon id="Fill-48" fill="#F8F9FB" points="15.0798122 74.25 15.0798122 66.8940926 8.91079812 63.25"></polygon>
                        <polygon id="Fill-49" fill="#FFFFFF" points="21.9342723 62.90625 15.4177184 66.6875 8.91079812 62.9020804 15.4147079 59.125"></polygon>
                        <polygon id="Fill-50" fill="#D9D9D9" points="146 54.3125 73.342723 153.3125 108.970439 90.8096958"></polygon>
                        <polygon id="Fill-51" fill="#D9D9D9" points="0 54.3125 73.342723 154 36.9362846 91.141394"></polygon>
                        <polygon id="Fill-52" fill="#FFFFFF" points="36.798474 90.924704 108.924092 90.924704 73.2936509 154"></polygon>
                        <polygon id="Fill-53" fill="#F1F3F4" points="60.3657622 111.375 60.3192488 104.033334 66.4882629 100.375 66.4882629 107.708621"></polygon>
                        <polygon id="Fill-54" fill="#F8F9FB" points="60.3192488 111.375 60.3184071 104.041379 54.1502347 100.375 54.1516376 107.708621"></polygon>
                        <polygon id="Fill-55" fill="#FFFFFF" points="67.1737089 100.719343 60.6631566 104.5 54.1502347 100.720528 60.6616756 96.9375"></polygon>
                        <polygon id="Fill-56" fill="#F1F3F4" points="60.3657601 74.25 60.3192488 66.908334 66.4882629 63.25 66.4882629 70.5836207"></polygon>
                        <polygon id="Fill-57" fill="#F8F9FB" points="60.3192488 74.25 60.3186877 66.9163793 54.1502347 63.25 54.1516376 70.5836207"></polygon>
                        <polygon id="Fill-58" fill="#FFFFFF" points="67.1737089 62.9068427 60.6630085 66.6875 54.1502347 62.908028 60.6615275 59.125"></polygon>
                        <polygon id="Fill-59" fill="#F1F3F4" points="87.0981545 92.8125 87.0516432 85.4706422 93.2206573 81.8125 93.2206573 89.1460249"></polygon>
                        <polygon id="Fill-60" fill="#F8F9FB" points="86.3661972 92.8125 86.3653555 85.4789751 80.1971831 81.8125 80.1985859 89.1460249"></polygon>
                        <polygon id="Fill-61" fill="#FFFFFF" points="93.2206573 82.1565463 86.710105 85.9375 80.1971831 82.158028 86.708624 78.375"></polygon>
                        <polygon id="Fill-62" fill="#F1F3F4" points="87.0981545 74.25 87.0516432 66.908334 93.2206573 63.25 93.2206573 70.5836207"></polygon>
                        <polygon id="Fill-63" fill="#F8F9FB" points="86.3661972 74.25 86.3653555 66.9163793 80.1971831 63.25 80.1985859 70.5836207"></polygon>
                        <polygon id="Fill-64" fill="#FFFFFF" points="93.2206573 62.9068427 86.710105 66.6875 80.1971831 62.908028 86.708624 59.125"></polygon>
                        <polygon id="Fill-65" fill="#F1F3F4" points="60.3657622 92.8125 60.3192488 85.4706422 66.4882629 81.8125 66.4882629 89.1460249"></polygon>
                        <polygon id="Fill-66" fill="#F8F9FB" points="60.3192488 92.8125 60.3184071 85.4789751 54.1502347 81.8125 54.1516376 89.1460249"></polygon>
                        <polygon id="Fill-67" fill="#FFFFFF" points="67.1737089 82.1565463 60.6631566 85.9375 54.1502347 82.1577317 60.6616756 78.375"></polygon>
                        <polygon id="Fill-68" fill="#F1F3F4" points="87.0981545 111.375 87.0516432 104.033142 93.2206573 100.375 93.2206573 107.708525"></polygon>
                        <polygon id="Fill-69" fill="#F8F9FB" points="86.3661972 111.375 86.3653555 104.041475 80.1971831 100.375 80.1985859 107.708525"></polygon>
                        <polygon id="Fill-70" fill="#FFFFFF" points="93.2206573 100.719046 86.710105 104.5 80.1971831 100.720528 86.708624 96.9375"></polygon>
                        <polygon id="Fill-71" fill="#F1F3F4" points="73.3892343 130.625 73.342723 123.283142 79.5117371 119.625 79.5117371 126.958525"></polygon>
                        <polygon id="Fill-72" fill="#F8F9FB" points="72.657277 130.625 72.6567159 123.291475 66.4882629 119.625 66.4896657 126.958525"></polygon>
                        <polygon id="Fill-73" fill="#FFFFFF" points="79.5117371 119.281546 73.0011848 123.0625 66.4882629 119.283028 72.9997038 115.5"></polygon>
                    </g>
                    <g id="Page-1">
                        <polygon id="Fill-1" fill="#F1F3F4" points="131.442678 28.607169 145.231629 55.1195109 108.832938 90.9747299 102.114407 56.9445322"></polygon>
                        <polygon id="Fill-2" fill="#F1F3F4" points="112.459657 66 112.413146 58.6584295 118.58216 55 118.58216 62.3338122"></polygon>
                        <polygon id="Fill-3" fill="#F8F9FB" points="112.413146 66 112.412584 58.6664751 106.244131 55 106.245534 62.3338122"></polygon>
                        <polygon id="Fill-4" fill="#FFFFFF" points="119.267606 55.3443427 112.757053 59.125 106.244131 55.345528 112.755572 51.5625"></polygon>
                        <polygon id="Fill-5" fill="#F1F3F4" points="128.910085 57.0625 128.86385 49.7206422 135.032864 46.0625 135.032864 53.3960249"></polygon>
                        <polygon id="Fill-6" fill="#F8F9FB" points="128.86385 57.0625 128.863289 49.7286878 122.694836 46.0625 122.696238 53.3960249"></polygon>
                        <polygon id="Fill-7" fill="#FFFFFF" points="135.71831 45.7191945 129.207609 49.5 122.694836 45.7203799 129.206128 41.9375"></polygon>
                        <polygon id="Fill-8" fill="#F1F3F4" points="128.910085 75.625 128.86385 68.2831422 135.032864 64.625 132.806905 70.6387663"></polygon>
                        <polygon id="Fill-9" fill="#F8F9FB" points="128.86385 75.625 128.863289 68.2914751 122.694836 64.625 122.696238 71.9585249"></polygon>
                        <polygon id="Fill-10" fill="#FFFFFF" points="135.71831 64.9690463 129.207609 68.75 122.694836 64.970528 129.206128 61.1875"></polygon>
                        <polygon id="Fill-11" fill="#F1F3F4" points="112.459657 85.25 112.413146 77.9081422 118.58216 74.25 118.58216 81.5835249"></polygon>
                        <polygon id="Fill-12" fill="#F8F9FB" points="112.413146 85.25 112.412584 77.9161878 106.244131 74.25 106.245534 81.5835249"></polygon>
                        <polygon id="Fill-13" fill="#FFFFFF" points="119.267606 73.9066945 112.757053 77.6875 106.244131 73.9078799 112.755572 70.125"></polygon>
                        <polygon id="Fill-14" fill="#F8F9FB" points="14.3084429 28.1875 0 54.348515 36.9795566 91.4375 43.8685446 56.9494235"></polygon>
                        <polygon id="Fill-15" fill="#F1F3F4" points="15.1263235 55 15.0798122 47.658334 21.2488263 44 21.2488263 51.3336207"></polygon>
                        <polygon id="Fill-16" fill="#F8F9FB" points="15.0798122 55 15.0792511 47.6663793 8.91079812 44 8.91220094 51.3336207"></polygon>
                        <polygon id="Fill-17" fill="#FFFFFF" points="21.9342723 44.3443427 15.4235719 48.125 8.91079812 44.345528 15.4220909 40.5625"></polygon>
                        <polygon id="Fill-18" fill="#F1F3F4" points="30.8915817 64.625 30.8450704 57.2831422 37.0140845 53.625 37.0140845 60.9585249"></polygon>
                        <polygon id="Fill-19" fill="#F8F9FB" points="30.8450704 64.625 30.8445093 57.2914751 24.6760563 53.625 24.6774592 60.9585249"></polygon>
                        <polygon id="Fill-20" fill="#FFFFFF" points="37.6995305 53.2815463 31.1889782 57.0625 24.6760563 53.2827317 31.1874972 49.5"></polygon>
                        <polygon id="Fill-21" fill="#F1F3F4" points="30.8915817 83.1875 30.8450704 75.8456422 37.0140845 72.1875 37.0140845 79.5210249"></polygon>
                        <polygon id="Fill-22" fill="#F8F9FB" points="30.8450704 83.1875 30.8445093 75.8539751 24.6760563 72.1875 24.6774592 79.5210249"></polygon>
                        <polygon id="Fill-23" fill="#FFFFFF" points="37.6995305 72.5315463 31.1889782 76.3125 24.6760563 72.533028 31.1874972 68.75"></polygon>
                        <polygon id="Fill-24" fill="#FFFFFF" points="36.8669607 91.0382207 43.7891933 56.7814685 102.234952 56.9718532 108.904812 91.0382207"></polygon>
                        <polygon id="Fill-25" fill="#F1F3F4" points="32.2159624 35.75 32.2159624 29.3344535 37.6995305 26.125 37.6995305 32.540852"></polygon>
                        <polygon id="Fill-26" fill="#F8F9FB" points="32.2159624 35.0625 32.2159624 28.6259027 26.7323944 25.4375 26.7323944 31.8801676"></polygon>
                        <polygon id="Fill-27" fill="#FFFFFF" points="37.0140845 26.46875 31.8695463 29.5625 26.7323944 26.4652153 31.8669895 23.375"></polygon>
                        <polygon id="Fill-28" fill="#FFFFFF" points="14.3068006 28.1837735 43.0564381 0 102.089235 0 131.605634 28.53125 102.089235 57.0625 43.6644545 56.8296362"></polygon>
                        <polygon id="Fill-29" fill="#F1F3F4" points="87.0978781 55 87.0516432 47.6581422 93.2206573 44 93.2206573 51.3335249"></polygon>
                        <polygon id="Fill-30" fill="#F8F9FB" points="86.3661972 55 86.3656361 47.6664751 80.1971831 44 80.1985859 51.3335249"></polygon>
                        <polygon id="Fill-31" fill="#FFFFFF" points="93.2206573 44.3440463 86.7099569 48.125 80.1971831 44.3452317 86.7084759 40.5625"></polygon>
                        <polygon id="Fill-32" fill="#F1F3F4" points="60.3657601 55 60.3192488 47.658334 66.4882629 44 66.4882629 51.3336207"></polygon>
                        <polygon id="Fill-33" fill="#F8F9FB" points="60.3192488 55 60.3186877 47.6663793 54.1502347 44 54.1516376 51.3336207"></polygon>
                        <polygon id="Fill-34" fill="#FFFFFF" points="67.1737089 44.3443427 60.6630085 48.125 54.1502347 44.345528 60.6615275 40.5625"></polygon>
                        <polygon id="Fill-35" fill="#F1F3F4" points="45.2859479 45.375 45.2394366 38.033334 51.4084507 34.375 51.4084507 41.7086207"></polygon>
                        <polygon id="Fill-36" fill="#F8F9FB" points="44.5539906 45.375 44.5531489 38.0413793 38.3849765 34.375 38.3863793 41.7086207"></polygon>
                        <polygon id="Fill-37" fill="#FFFFFF" points="51.4084507 34.7193427 44.8978984 38.5 38.3849765 34.720528 44.8964174 30.9375"></polygon>
                        <polygon id="Fill-38" fill="#F1F3F4" points="28.1497977 36.4375 28.1032864 29.095834 34.2723005 25.4375 34.2723005 32.7711207"></polygon>
                        <polygon id="Fill-39" fill="#F8F9FB" points="27.4178404 36.4375 27.4172793 29.1038793 21.2488263 25.4375 21.2502291 32.7711207"></polygon>
                        <polygon id="Fill-40" fill="#FFFFFF" points="34.2723005 25.0941945 27.7617482 28.875 21.2488263 25.0953799 27.7602672 21.3125"></polygon>
                        <polygon id="Fill-41" fill="#F1F3F4" points="102.863413 45.375 102.816901 38.033334 108.985915 34.375 108.985915 41.7086207"></polygon>
                        <polygon id="Fill-42" fill="#F8F9FB" points="102.816901 45.375 102.81634 38.0413793 96.6478873 34.375 96.6492901 41.7086207"></polygon>
                        <polygon id="Fill-43" fill="#FFFFFF" points="109.671362 34.7191945 103.160661 38.5 96.6478873 34.7203799 103.15918 30.9375"></polygon>
                        <polygon id="Fill-44" fill="#F1F3F4" points="119.314117 36.4375 119.267606 29.095834 125.43662 25.4375 125.43662 32.7711207"></polygon>
                        <polygon id="Fill-45" fill="#F8F9FB" points="118.58216 36.4375 118.581318 29.1038793 112.413146 25.4375 112.414548 32.7711207"></polygon>
                        <polygon id="Fill-46" fill="#FFFFFF" points="125.43662 25.0941945 118.926067 28.875 112.413146 25.0953799 118.924586 21.3125"></polygon>
                        <polygon id="Fill-47" fill="#F1F3F4" points="15.0798122 74.25 15.0798122 66.917822 21.2488263 63.25 21.2488263 70.582178"></polygon>
                        <polygon id="Fill-48" fill="#F8F9FB" points="15.0798122 74.25 15.0798122 66.8940926 8.91079812 63.25"></polygon>
                        <polygon id="Fill-49" fill="#FFFFFF" points="21.9342723 62.90625 15.4177184 66.6875 8.91079812 62.9020804 15.4147079 59.125"></polygon>
                        <polygon id="Fill-50" fill="#D9D9D9" points="146 54.3125 73.342723 153.3125 108.970439 90.8096958"></polygon>
                        <polygon id="Fill-51" fill="#D9D9D9" points="0 54.3125 73.342723 154 36.9362846 91.141394"></polygon>
                        <polygon id="Fill-52" fill="#FFFFFF" points="36.798474 90.924704 108.924092 90.924704 73.2936509 154"></polygon>
                        <polygon id="Fill-53" fill="#F1F3F4" points="60.3657622 111.375 60.3192488 104.033334 66.4882629 100.375 66.4882629 107.708621"></polygon>
                        <polygon id="Fill-54" fill="#F8F9FB" points="60.3192488 111.375 60.3184071 104.041379 54.1502347 100.375 54.1516376 107.708621"></polygon>
                        <polygon id="Fill-55" fill="#FFFFFF" points="67.1737089 100.719343 60.6631566 104.5 54.1502347 100.720528 60.6616756 96.9375"></polygon>
                        <polygon id="Fill-56" fill="#F1F3F4" points="60.3657601 74.25 60.3192488 66.908334 66.4882629 63.25 66.4882629 70.5836207"></polygon>
                        <polygon id="Fill-57" fill="#F8F9FB" points="60.3192488 74.25 60.3186877 66.9163793 54.1502347 63.25 54.1516376 70.5836207"></polygon>
                        <polygon id="Fill-58" fill="#FFFFFF" points="67.1737089 62.9068427 60.6630085 66.6875 54.1502347 62.908028 60.6615275 59.125"></polygon>
                        <polygon id="Fill-59" fill="#F1F3F4" points="87.0981545 92.8125 87.0516432 85.4706422 93.2206573 81.8125 93.2206573 89.1460249"></polygon>
                        <polygon id="Fill-60" fill="#F8F9FB" points="86.3661972 92.8125 86.3653555 85.4789751 80.1971831 81.8125 80.1985859 89.1460249"></polygon>
                        <polygon id="Fill-61" fill="#FFFFFF" points="93.2206573 82.1565463 86.710105 85.9375 80.1971831 82.158028 86.708624 78.375"></polygon>
                        <polygon id="Fill-62" fill="#F1F3F4" points="87.0981545 74.25 87.0516432 66.908334 93.2206573 63.25 93.2206573 70.5836207"></polygon>
                        <polygon id="Fill-63" fill="#F8F9FB" points="86.3661972 74.25 86.3653555 66.9163793 80.1971831 63.25 80.1985859 70.5836207"></polygon>
                        <polygon id="Fill-64" fill="#FFFFFF" points="93.2206573 62.9068427 86.710105 66.6875 80.1971831 62.908028 86.708624 59.125"></polygon>
                        <polygon id="Fill-65" fill="#F1F3F4" points="60.3657622 92.8125 60.3192488 85.4706422 66.4882629 81.8125 66.4882629 89.1460249"></polygon>
                        <polygon id="Fill-66" fill="#F8F9FB" points="60.3192488 92.8125 60.3184071 85.4789751 54.1502347 81.8125 54.1516376 89.1460249"></polygon>
                        <polygon id="Fill-67" fill="#FFFFFF" points="67.1737089 82.1565463 60.6631566 85.9375 54.1502347 82.1577317 60.6616756 78.375"></polygon>
                        <polygon id="Fill-68" fill="#F1F3F4" points="87.0981545 111.375 87.0516432 104.033142 93.2206573 100.375 93.2206573 107.708525"></polygon>
                        <polygon id="Fill-69" fill="#F8F9FB" points="86.3661972 111.375 86.3653555 104.041475 80.1971831 100.375 80.1985859 107.708525"></polygon>
                        <polygon id="Fill-70" fill="#FFFFFF" points="93.2206573 100.719046 86.710105 104.5 80.1971831 100.720528 86.708624 96.9375"></polygon>
                        <polygon id="Fill-71" fill="#F1F3F4" points="73.3892343 130.625 73.342723 123.283142 79.5117371 119.625 79.5117371 126.958525"></polygon>
                        <polygon id="Fill-72" fill="#F8F9FB" points="72.657277 130.625 72.6567159 123.291475 66.4882629 119.625 66.4896657 126.958525"></polygon>
                        <polygon id="Fill-73" fill="#FFFFFF" points="79.5117371 119.281546 73.0011848 123.0625 66.4882629 119.283028 72.9997038 115.5"></polygon>
                    </g>
                </g>
            </g>
        </g>
    </g>
</svg>