<?xml version="1.0" encoding="UTF-8"?>
<svg width="667px" height="307px" viewBox="0 0 667 307" version="1.1" xmlns="http://www.w3.org/2000/svg" xmlns:xlink="http://www.w3.org/1999/xlink">
    <!-- Generator: Sketch 48.1 (47250) - http://www.bohemiancoding.com/sketch -->
    <title>Group 8</title>
    <desc>Created with Sketch.</desc>
    <defs></defs>
    <g id="Documentation-1440" stroke="none" stroke-width="1" fill="none" fill-rule="evenodd" transform="translate(-458.000000, -34.000000)">
        <g id="Pic" fill="#32D4D4">
            <g id="Group-7" transform="translate(258.000000, 0.000000)">
                <g id="Group-8" transform="translate(200.000000, 34.000000)">
                    <path d="M301.171842,303.99339 C315.450424,318.235689 325.605604,279.065292 349.468566,245.595915 C373.331528,212.126537 415.67788,218.851879 428.206705,219.22828 C472.814153,220.568415 425.120588,177.54722 461.045258,165.172465 C469.275291,162.337515 525.20584,158.689596 572.244798,159.545983 C615.016694,160.324684 652.585327,171.164325 664.787426,154.340127 C676.989525,137.51593 634.775161,143.390962 634.088821,126.006806 C633.402481,108.622651 617.509318,113.664573 582.614263,106.311399 C553.670789,100.212357 523.598245,82.8090988 503.604547,53.2284086 C483.610848,23.6477185 450.370953,4.31353165e-12 400.626389,0 C350.881826,-4.36290923e-12 333.803608,27.361222 309.508306,46.9815324 C285.213004,66.6018428 256.288845,68.1011398 207.040805,68.1011398 C169.300794,68.1011398 144.821217,49.4666553 105.224407,64.3063652 C65.6275969,79.1460751 73.7509244,96.9126529 52.2746645,114.45365 C26.6222132,135.405603 -8.33931067,146.10351 1.7941131,155.637987 C11.9275369,165.172465 17.0836665,159.477984 67.3785912,159.545983 C98.5706304,159.588155 142.601376,163.953586 149.162518,165.172465 C183.428611,173.167035 169.061282,186.177395 215.239463,192.976782 C267.532034,200.676467 286.89326,289.75109 301.171842,303.99339 Z" id="Oval"></path>
                </g>
            </g>
        </g>
    </g>
</svg>