<?xml version="1.0" encoding="UTF-8"?>
<svg width="21px" height="19px" viewBox="0 0 21 19" version="1.1" xmlns="http://www.w3.org/2000/svg" xmlns:xlink="http://www.w3.org/1999/xlink">
    <!-- Generator: Sketch 48.1 (47250) - http://www.bohemiancoding.com/sketch -->
    <title>Shape</title>
    <desc>Created with Sketch.</desc>
    <defs></defs>
    <g id="Main-iPhone-7-plus" stroke="none" stroke-width="1" fill="none" fill-rule="evenodd" transform="translate(-23.000000, -3708.000000)" fill-opacity="0.8">
        <g id="bottom" transform="translate(0.000000, 3391.000000)" fill="#FFFFFF" fill-rule="nonzero">
            <g id="Group-2" transform="translate(22.880000, 43.000000)">
                <g id="Group-9" transform="translate(0.000000, 263.000000)">
                    <g id="Stacked-Group-2" transform="translate(0.600000, 0.000000)">
                        <path d="M18.6585672,15.8500756 C17.7643394,14.3580316 16.5513766,13.1767783 15.0193594,12.3060492 C13.4871142,11.4352757 11.8143593,11 9.99990879,11 C8.18568634,11 6.51238411,11.435409 4.98045815,12.3060492 C3.44830417,13.1767339 2.23538694,14.3580316 1.34115919,15.8500756 C0.447068266,17.3420752 0,18.9713503 0,20.7378565 C0,22.8598312 0.635737186,24.7679652 1.90753079,26.462747 C3.17918759,28.1576621 4.82197991,29.3304773 6.83577093,29.9813257 C7.07018192,30.0236941 7.2437099,29.9938941 7.35653728,29.8926806 C7.46941028,29.7913339 7.52577837,29.6644063 7.52577837,29.5124306 C7.52577837,29.4870717 7.52354371,29.2589306 7.51921121,28.8277407 C7.5147419,28.3965508 7.51264406,28.0203866 7.51264406,27.6994257 L7.21315438,27.749877 C7.0222052,27.7839405 6.78131827,27.7983742 6.49049359,27.7942884 C6.19980572,27.7903358 5.89803578,27.760669 5.58559421,27.7055101 C5.27301583,27.6508397 4.98228236,27.5240453 4.71316578,27.3253933 C4.44418601,27.1267412 4.25323683,26.8667127 4.14036384,26.5457074 L4.01016085,26.2539248 C3.92337406,26.0596695 3.78674073,25.8438748 3.60007844,25.6073399 C3.41341615,25.3705829 3.22465602,25.2100803 3.03370684,25.1255654 L2.94254195,25.0620128 C2.88179575,25.0197776 2.82542766,24.9688378 2.77330086,24.9097262 C2.72121967,24.8506147 2.68222718,24.7914588 2.65618658,24.732214 C2.63010038,24.6729249 2.65171727,24.6242944 2.72126527,24.5861451 C2.79081328,24.5479957 2.91650135,24.5294762 3.09887674,24.5294762 L3.35919151,24.5673591 C3.5328107,24.6012449 3.74756582,24.7024584 4.00373051,24.8716213 C4.25975838,25.0406509 4.47022661,25.2603983 4.6351808,25.5307747 C4.8349318,25.8774497 5.0755907,26.1416085 5.35784159,26.3233842 C5.63986446,26.5051599 5.9242132,26.5958923 6.21061417,26.5958923 C6.49701514,26.5958923 6.74437801,26.5747525 6.95279401,26.5326949 C7.16098197,26.4904153 7.35630926,26.4268627 7.53868465,26.3423922 C7.61680645,25.7757921 7.82950933,25.3405164 8.17661089,25.0362542 C7.68188514,24.9856253 7.23709713,24.9093709 6.84201885,24.8079798 C6.4471686,24.7064555 6.03913843,24.5416893 5.61820197,24.3132373 C5.19703748,24.0850961 4.84765566,23.8017961 4.56996529,23.4638256 C4.29222932,23.1256776 4.06429428,22.6817416 3.88647941,22.1324175 C3.70857333,21.5828714 3.61959749,20.9489437 3.61959749,20.2304567 C3.61959749,19.2074411 3.96254897,18.3368896 4.64831511,17.6183138 C4.32707173,16.8491979 4.35739922,15.9869958 4.7393888,15.0317963 C4.99112978,14.9556309 5.36445436,15.0127883 5.85918011,15.2029133 C6.35399707,15.3931272 6.71628518,15.5560724 6.94640927,15.6911718 C7.17653336,15.8262267 7.36091539,15.9406748 7.49982898,16.0334945 C8.30726993,15.8137915 9.14052346,15.7039178 9.99981758,15.7039178 C10.8591117,15.7039178 11.6925476,15.8137915 12.5000342,16.0334945 L12.9948056,15.7293211 C13.3331509,15.5263612 13.7326985,15.3403665 14.1924906,15.1712924 C14.6525564,15.0023072 15.0043553,14.9557641 15.2475225,15.0319296 C15.6379946,15.9871735 15.6727915,16.8493312 15.3514569,17.6184471 C16.0371774,18.3370229 16.3802657,19.2077964 16.3802657,20.2305899 C16.3802657,20.9490769 16.2909706,21.5850031 16.1133382,22.1387684 C15.9354777,22.6926224 15.7055816,23.1361142 15.4235588,23.4701765 C15.1412167,23.8041943 14.7896002,24.0852738 14.3686637,24.3133705 C13.9476361,24.5416449 13.5394691,24.706411 13.1446188,24.8079354 C12.7495861,24.9094598 12.3047981,24.9857585 11.8100724,25.0364763 C12.2612907,25.4167263 12.4869455,26.0169458 12.4869455,26.8368683 L12.4869455,29.5120753 C12.4869455,29.664051 12.5412157,29.7909342 12.6498475,29.8923253 C12.7583423,29.9935388 12.9296813,30.0233389 13.1640923,29.980926 C15.1781569,29.3301664 16.8209492,28.1573068 18.0925604,26.4623917 C19.3640348,24.7676099 20,22.8594759 20,20.7375012 C19.9995439,18.9712171 19.5522477,17.3420752 18.6585672,15.8500756 Z" id="Shape"></path>
                    </g>
                </g>
            </g>
        </g>
    </g>
</svg>