<?xml version="1.0" encoding="UTF-8"?>
<svg width="98px" height="16px" viewBox="0 0 98 16" version="1.1" xmlns="http://www.w3.org/2000/svg" xmlns:xlink="http://www.w3.org/1999/xlink">
    <!-- Generator: Sketch 48.1 (47250) - http://www.bohemiancoding.com/sketch -->
    <title>radiofx logo dark</title>
    <desc>Created with Sketch.</desc>
    <defs></defs>
    <g id="Main-iPhone-7-plus" stroke="none" stroke-width="1" fill="none" fill-rule="evenodd" transform="translate(-150.000000, -3335.000000)" opacity="0.5">
        <g id="Group-4" transform="translate(0.000000, 3250.000000)">
            <g id="Group-5" transform="translate(18.000000, 78.000000)">
                <g id="radiofx-logo-dark" transform="translate(132.000000, 7.000000)">
                    <g>
                        <g id="Group" transform="translate(70.944785, 0.592593)" fill="#828D99" fill-rule="nonzero">
                            <rect id="Rectangle-path" x="3.38860783" y="0.0239493379" width="6.76935347" height="3.10543082"></rect>
                            <polygon id="Shape" points="3.38074563 9.3402418 9.64691836 9.3402418 9.64691836 6.23481098 3.38074563 6.23481098 3.38074563 6.23481098"></polygon>
                            <rect id="Rectangle-path" x="0.0628975932" y="3.13736327" width="3.31784804" height="3.12139704"></rect>
                            <polygon id="Shape" points="0.0628975932 15.3834581 3.38074563 15.3834581 3.38074563 9.30830935 3.38074563 9.30032623 0.0628975932 9.30032623"></polygon>
                            <g id="Rectangle-path" opacity="0.9">
                                <rect x="0.0628975932" y="0.0239493379" width="3.31784804" height="3.10543082"></rect>
                                <rect x="0.0628975932" y="0.0239493379" width="3.31784804" height="3.10543082"></rect>
                            </g>
                            <g transform="translate(0.000000, 6.226828)" id="Shape" opacity="0.9">
                                <polygon points="0.0628975932 0.00798311265 0.0628975932 3.11341393 3.38074563 3.11341393 3.38074563 0.00798311265 3.38074563 0.00798311265"></polygon>
                                <polygon points="0.0628975932 0.00798311265 0.0628975932 3.11341393 3.38074563 3.11341393 3.38074563 0.00798311265 3.38074563 0.00798311265"></polygon>
                            </g>
                        </g>
                        <g id="Group" transform="translate(82.368098, 0.592593)" fill="#828D99" fill-rule="nonzero">
                            <polygon id="Shape" points="15.1661027 0.0239493379 11.2186528 0.0239493379 7.80805602 4.69407024 9.781781 7.40034542"></polygon>
                            <polygon id="Shape" points="0.00789489992 15.3834581 3.95534486 15.3834581 7.80805602 10.1066206 5.83433104 7.40034542"></polygon>
                            <polygon id="Shape" points="4.39745926 0.0239493379 0.450009295 0.0239493379 5.83433104 7.40034542 7.80805602 4.69407024"></polygon>
                            <polygon id="Shape" points="9.781781 7.40034542 7.80805602 10.1066206 11.6607672 15.3834581 15.6082171 15.3834581"></polygon>
                            <g opacity="0.9" transform="translate(5.763277, 4.630205)" id="Shape">
                                <polygon points="2.04477908 0.0638649012 0.0710540993 2.77014009 2.04477908 5.47641528 4.01850406 2.77014009"></polygon>
                                <polygon points="2.04477908 0.0638649012 0.0710540993 2.77014009 2.04477908 5.47641528 4.01850406 2.77014009"></polygon>
                            </g>
                        </g>
                        <path d="M0,0.592592593 L6.09209606,0.592592593 C6.89347246,0.592592593 7.6539623,0.672631073 8.37356559,0.824704185 C9.09316889,0.976777297 9.72282177,1.23290043 10.2625242,1.58506975 C10.8022267,1.93723906 11.2356241,2.41746994 11.5545392,3.01775854 C11.8734543,3.61804714 12.0288232,4.37040885 12.0288232,5.26683983 C12.0288232,6.35536316 11.7426174,7.27580568 11.1620284,8.04417508 C10.5814393,8.80454064 9.73917639,9.28477152 8.62706221,9.49287157 L12.6257669,16 L8.47169332,16 L5.18441463,9.84504089 L3.4671795,9.84504089 L3.4671795,16 L0,16 L0,0.592592593 Z M3.4671795,6.97165945 L5.51150704,6.97165945 C5.82224483,6.97165945 6.14933723,6.9636556 6.50096157,6.93964406 C6.85258591,6.91563252 7.16332369,6.85160173 7.44952955,6.74755171 C7.72755809,6.63549784 7.96470009,6.46741703 8.15277822,6.23530544 C8.34085635,6.00319384 8.43080676,5.67503608 8.43080676,5.25883598 C8.43080676,4.86664743 8.34903366,4.55449735 8.18548746,4.32238576 C8.02194126,4.09027417 7.8175085,3.91418951 7.56401189,3.78612795 C7.31051527,3.66607023 7.02430942,3.5780279 6.69721701,3.53800866 C6.37012461,3.49798942 6.05120951,3.47397787 5.74047173,3.47397787 L3.4671795,3.47397787 L3.4671795,6.97165945 Z" id="Shape" fill="#000000" fill-rule="nonzero"></path>
                        <path d="M19.3118873,0.592592593 L22.1325943,0.592592593 L28.8588957,15.9919962 L25.017591,15.9919962 L23.6755452,12.73443 L17.672502,12.73443 L16.3867096,16 L12.6257669,16 L19.3118873,0.592592593 Z M20.6217883,5.07474747 L18.7413169,9.86104858 L22.518332,9.86104858 L20.6217883,5.07474747 Z" id="Shape" fill="#000000" fill-rule="nonzero"></path>
                        <path d="M30.0613497,0.592592593 L35.0161376,0.592592593 C36.2158818,0.592592593 37.3533017,0.728728729 38.4361877,1.00900901 C39.5190737,1.28128128 40.4617299,1.72972973 41.2641562,2.34634635 C42.0665826,2.96296296 42.7054074,3.76376376 43.1806308,4.74874875 C43.6558541,5.73373373 43.8895706,6.93493493 43.8895706,8.33633634 C43.8895706,9.58558559 43.6636447,10.6826827 43.2040024,11.6356356 C42.7443601,12.5885886 42.1289069,13.3813814 41.3498522,14.03003 C40.5707975,14.6786787 39.6748846,15.1671672 38.6621135,15.4954955 C37.6493424,15.8318318 36.5820375,16 35.4679893,16 L30.0691402,16 L30.0691402,0.592592593 L30.0613497,0.592592593 Z M33.3645416,12.8688689 L35.0784619,12.8688689 C35.8419355,12.8688689 36.5508753,12.7887888 37.2052813,12.6286286 C37.8596872,12.4684685 38.4283971,12.2042042 38.911411,11.8358358 C39.394425,11.4674675 39.7683712,10.978979 40.0410404,10.3783784 C40.3137095,9.77777778 40.4539393,9.04104104 40.4539393,8.16816817 C40.4539393,7.41541542 40.3137095,6.75875876 40.0410404,6.1981982 C39.7683712,5.63763764 39.394425,5.18118118 38.9269921,4.81281281 C38.4595593,4.45245245 37.914221,4.18018018 37.2831867,3.995996 C36.6521524,3.81181181 35.9977465,3.72372372 35.3043878,3.72372372 L33.3567511,3.72372372 L33.3567511,12.8688689 L33.3645416,12.8688689 Z" id="Shape" fill="#000000" fill-rule="nonzero"></path>
                        <polygon id="Shape" fill="#000000" fill-rule="nonzero" points="46.2944785 0.592592593 49.9018405 0.592592593 49.9018405 16 46.2944785 16"></polygon>
                        <path d="M52.3067485,8.00395452 C52.3067485,6.78596144 52.5175834,5.67869501 52.9311441,4.69006426 C53.3528139,3.70143351 53.9366644,2.86307464 54.6826956,2.1670786 C55.4287268,1.47108255 56.3207206,0.941176471 57.350568,0.561542264 C58.3804154,0.189817103 59.4994622,0 60.7239264,0 C61.9402816,0 63.0674374,0.189817103 64.0972848,0.561542264 C65.1271322,0.933267425 66.0110169,1.47108255 66.7651572,2.1670786 C67.5111883,2.86307464 68.0950388,3.70143351 68.5167086,4.69006426 C68.9383784,5.67869501 69.1411043,6.78596144 69.1411043,8.00395452 C69.1411043,9.2219476 68.9302694,10.329214 68.5167086,11.3178448 C68.0950388,12.3064755 67.5111883,13.1527435 66.7651572,13.8408304 C66.019126,14.5368265 65.1271322,15.0667326 64.0972848,15.4384577 C63.0674374,15.8101829 61.9483906,16 60.7239264,16 C59.5075712,16 58.3804154,15.8101829 57.350568,15.4384577 C56.3207206,15.0667326 55.4368358,14.5289174 54.6826956,13.8408304 C53.9366644,13.1448344 53.3528139,12.3064755 52.9311441,11.3178448 C52.5175834,10.321305 52.3067485,9.2219476 52.3067485,8.00395452 Z M55.8747237,8.00395452 C55.8747237,8.72367771 55.9882502,9.38012852 56.2153031,9.97330697 C56.4423561,10.5664854 56.7667175,11.0805734 57.1964963,11.52348 C57.6262752,11.9584775 58.1371443,12.2985665 58.7291039,12.5437469 C59.3210634,12.7889273 59.9860042,12.907563 60.7239264,12.907563 C61.4618485,12.907563 62.1267894,12.7889273 62.7187489,12.5437469 C63.3107084,12.2985665 63.8215776,11.9584775 64.2513564,11.52348 C64.6811353,11.0884825 65.0054966,10.5743945 65.2325496,9.97330697 C65.4596026,9.38012852 65.5731291,8.72367771 65.5731291,8.00395452 C65.5731291,7.30004943 65.4596026,6.65150766 65.2325496,6.05042017 C65.0054966,5.44933267 64.6811353,4.92733564 64.2513564,4.49233811 C63.8215776,4.05734058 63.3107084,3.71725161 62.7187489,3.47207118 C62.1267894,3.22689076 61.4618485,3.10825507 60.7239264,3.10825507 C59.9860042,3.10825507 59.3210634,3.22689076 58.7291039,3.47207118 C58.1371443,3.71725161 57.6262752,4.05734058 57.1964963,4.49233811 C56.7667175,4.92733564 56.4423561,5.44933267 56.2153031,6.05042017 C55.9882502,6.64359862 55.8747237,7.30004943 55.8747237,8.00395452 Z" id="Shape" fill="#000000" fill-rule="nonzero"></path>
                    </g>
                </g>
            </g>
        </g>
    </g>
</svg>